<svg width="34" height="32" viewBox="0 0 34 32" fill="none" xmlns="http://www.w3.org/2000/svg">
<path d="M17 2C15.6613 2 14.7158 2.89 14.2483 4H5.3125V29H28.6875V4H19.7517C19.2842 2.89 18.3387 2 17 2ZM17 4C17.5844 4 18.0625 4.45 18.0625 5V6H21.25V8H12.75V6H15.9375V5C15.9375 4.45 16.4156 4 17 4ZM7.4375 6H10.625V10H23.375V6H26.5625V27H7.4375V6ZM9.5625 13V15H11.6875V13H9.5625ZM13.8125 13V15H24.4375V13H13.8125ZM9.5625 17V19H11.6875V17H9.5625ZM13.8125 17V19H24.4375V17H13.8125ZM9.5625 21V23H11.6875V21H9.5625ZM13.8125 21V23H24.4375V21H13.8125Z" fill="#340F0F"/>
</svg>
